# xmcd
#
# Track frame offsets:
#	150
#	13287
#	26817
#	39990
#	53855
#	67147
#	81000
#	95377
#	110147
#	123755
#	137787
#	151377
#	165337
#	179477
#	192297
#	206027
#	219660
#	236505
#	255100
#	270130
#	283310
#	298267
#	314457
#	327410
#
# Disc length: 4556 seconds
#
# Revision: 0
# Processed by: cddbd v1.4PL0 Copyright (c) Steve Scherf et al.
# Submitted via: dBpowerAMP V4.0
#
DISCID=6611ca18
DTITLE=Josh White - Complete Recorded Works - 1935-1940
DYEAR=1935
DGENRE=Blues
TTITLE0=I Got A Home In That Rock
TTITLE1=Paul And Silas Bound in Jail
TTITLE2=Jet Black Woman
TTITLE3=Pigmeat And Whiskey Blues
TTITLE4=Prodigal Son
TTITLE5=While The Blood Runs Warm In Your Veins
TTITLE6=Trying To Get Home
TTITLE7=Got A Key To The Kingdom
TTITLE8=My Soul Is Gonna Live With God
TTITLE9=On My Way
TTITLE10=How About You
TTITLE11=Talking About My Time
TTITLE12=Did You Read That Letter?
TTITLE13=When The Sun Goes Down
TTITLE14=No More Ball And Chain
TTITLE15=Silicosis Is Killin' Me
TTITLE16=Careless Love
TTITLE17=Milk Cow Blues
TTITLE18=Careless Love
TTITLE19=Prison Bound
TTITLE20=Hard Time Blues
TTITLE21=Monday, Tuesday, Wednesday
TTITLE22=Motherless Children - Part 1
TTITLE23=Motherless Children - Part 2
EXTD=
EXTT0=
EXTT1=
EXTT2=
EXTT3=
EXTT4=
EXTT5=
EXTT6=
EXTT7=
EXTT8=
EXTT9=
EXTT10=
EXTT11=
EXTT12=
EXTT13=
EXTT14=
EXTT15=
EXTT16=
EXTT17=
EXTT18=
EXTT19=
EXTT20=
EXTT21=
EXTT22=
EXTT23=
PLAYORDER=
